<mxfile host="Electron" modified="2023-06-15T09:50:09.428Z" agent="Mozilla/5.0 (Windows NT 10.0; Win64; x64) AppleWebKit/537.36 (KHTML, like Gecko) draw.io/21.2.1 Chrome/112.0.5615.87 Electron/24.1.2 Safari/537.36" etag="Uz1ff7SAyYHWibk-XwEx" version="21.2.1" type="device">
  <diagram name="페이지-1" id="hurNgKo90N9-JojdDiEQ">
    <mxGraphModel dx="2363" dy="1580" grid="1" gridSize="10" guides="1" tooltips="1" connect="1" arrows="1" fold="1" page="1" pageScale="1" pageWidth="2339" pageHeight="3300" math="0" shadow="0">
      <root>
        <mxCell id="0" />
        <mxCell id="1" parent="0" />
        <mxCell id="q3OCXO2SyUp_Sfbwh3Ol-1" value="Start" style="ellipse;whiteSpace=wrap;html=1;aspect=fixed;" vertex="1" parent="1">
          <mxGeometry x="130" y="70" width="40" height="40" as="geometry" />
        </mxCell>
        <mxCell id="q3OCXO2SyUp_Sfbwh3Ol-2" value="출력할 배열 생성" style="rounded=0;whiteSpace=wrap;html=1;" vertex="1" parent="1">
          <mxGeometry x="100" y="130" width="100" height="30" as="geometry" />
        </mxCell>
        <mxCell id="q3OCXO2SyUp_Sfbwh3Ol-3" value="원판 최대값 입력" style="shape=parallelogram;perimeter=parallelogramPerimeter;whiteSpace=wrap;html=1;fixedSize=1;" vertex="1" parent="1">
          <mxGeometry x="90" y="180" width="120" height="40" as="geometry" />
        </mxCell>
        <mxCell id="q3OCXO2SyUp_Sfbwh3Ol-4" value="int i:2,-1,0" style="shape=loopLimit;whiteSpace=wrap;html=1;" vertex="1" parent="1">
          <mxGeometry x="100" y="240" width="100" height="40" as="geometry" />
        </mxCell>
        <mxCell id="q3OCXO2SyUp_Sfbwh3Ol-5" value="" style="shape=loopLimit;whiteSpace=wrap;html=1;rotation=-180;" vertex="1" parent="1">
          <mxGeometry x="100" y="330" width="100" height="40" as="geometry" />
        </mxCell>
        <mxCell id="q3OCXO2SyUp_Sfbwh3Ol-6" value="하노이 탑&lt;br&gt;첫 모습 입력&amp;nbsp;" style="rounded=0;whiteSpace=wrap;html=1;" vertex="1" parent="1">
          <mxGeometry x="105" y="290" width="90" height="30" as="geometry" />
        </mxCell>
        <mxCell id="q3OCXO2SyUp_Sfbwh3Ol-7" value="move(1,3,2,n)" style="shape=process;whiteSpace=wrap;html=1;backgroundOutline=1;" vertex="1" parent="1">
          <mxGeometry x="90" y="390" width="120" height="60" as="geometry" />
        </mxCell>
        <mxCell id="q3OCXO2SyUp_Sfbwh3Ol-8" value="End" style="ellipse;whiteSpace=wrap;html=1;aspect=fixed;" vertex="1" parent="1">
          <mxGeometry x="130" y="470" width="40" height="40" as="geometry" />
        </mxCell>
        <mxCell id="q3OCXO2SyUp_Sfbwh3Ol-9" value="" style="endArrow=classic;html=1;rounded=0;exitX=0.5;exitY=1;exitDx=0;exitDy=0;entryX=0.5;entryY=0;entryDx=0;entryDy=0;" edge="1" parent="1" source="q3OCXO2SyUp_Sfbwh3Ol-1" target="q3OCXO2SyUp_Sfbwh3Ol-2">
          <mxGeometry width="50" height="50" relative="1" as="geometry">
            <mxPoint x="230" y="190" as="sourcePoint" />
            <mxPoint x="280" y="140" as="targetPoint" />
          </mxGeometry>
        </mxCell>
        <mxCell id="q3OCXO2SyUp_Sfbwh3Ol-10" value="" style="endArrow=classic;html=1;rounded=0;exitX=0.5;exitY=1;exitDx=0;exitDy=0;entryX=0.5;entryY=0;entryDx=0;entryDy=0;" edge="1" parent="1" source="q3OCXO2SyUp_Sfbwh3Ol-2" target="q3OCXO2SyUp_Sfbwh3Ol-3">
          <mxGeometry width="50" height="50" relative="1" as="geometry">
            <mxPoint x="160" y="120" as="sourcePoint" />
            <mxPoint x="160" y="140" as="targetPoint" />
          </mxGeometry>
        </mxCell>
        <mxCell id="q3OCXO2SyUp_Sfbwh3Ol-11" value="" style="endArrow=classic;html=1;rounded=0;exitX=0.5;exitY=1;exitDx=0;exitDy=0;entryX=0.5;entryY=0;entryDx=0;entryDy=0;" edge="1" parent="1" source="q3OCXO2SyUp_Sfbwh3Ol-3" target="q3OCXO2SyUp_Sfbwh3Ol-4">
          <mxGeometry width="50" height="50" relative="1" as="geometry">
            <mxPoint x="170" y="130" as="sourcePoint" />
            <mxPoint x="170" y="150" as="targetPoint" />
          </mxGeometry>
        </mxCell>
        <mxCell id="q3OCXO2SyUp_Sfbwh3Ol-12" value="" style="endArrow=none;html=1;rounded=0;exitX=0.5;exitY=1;exitDx=0;exitDy=0;entryX=0.5;entryY=0;entryDx=0;entryDy=0;" edge="1" parent="1" source="q3OCXO2SyUp_Sfbwh3Ol-4" target="q3OCXO2SyUp_Sfbwh3Ol-6">
          <mxGeometry width="50" height="50" relative="1" as="geometry">
            <mxPoint x="230" y="190" as="sourcePoint" />
            <mxPoint x="280" y="140" as="targetPoint" />
          </mxGeometry>
        </mxCell>
        <mxCell id="q3OCXO2SyUp_Sfbwh3Ol-13" value="" style="endArrow=none;html=1;rounded=0;exitX=0.5;exitY=1;exitDx=0;exitDy=0;entryX=0.5;entryY=1;entryDx=0;entryDy=0;" edge="1" parent="1" source="q3OCXO2SyUp_Sfbwh3Ol-5" target="q3OCXO2SyUp_Sfbwh3Ol-6">
          <mxGeometry width="50" height="50" relative="1" as="geometry">
            <mxPoint x="160" y="290" as="sourcePoint" />
            <mxPoint x="290" y="150" as="targetPoint" />
          </mxGeometry>
        </mxCell>
        <mxCell id="q3OCXO2SyUp_Sfbwh3Ol-14" value="" style="endArrow=classic;html=1;rounded=0;exitX=0.5;exitY=0;exitDx=0;exitDy=0;entryX=0.5;entryY=0;entryDx=0;entryDy=0;" edge="1" parent="1" source="q3OCXO2SyUp_Sfbwh3Ol-5" target="q3OCXO2SyUp_Sfbwh3Ol-7">
          <mxGeometry width="50" height="50" relative="1" as="geometry">
            <mxPoint x="160" y="120" as="sourcePoint" />
            <mxPoint x="160" y="140" as="targetPoint" />
          </mxGeometry>
        </mxCell>
        <mxCell id="q3OCXO2SyUp_Sfbwh3Ol-15" value="" style="endArrow=classic;html=1;rounded=0;exitX=0.5;exitY=1;exitDx=0;exitDy=0;entryX=0.5;entryY=0;entryDx=0;entryDy=0;" edge="1" parent="1" source="q3OCXO2SyUp_Sfbwh3Ol-7" target="q3OCXO2SyUp_Sfbwh3Ol-8">
          <mxGeometry width="50" height="50" relative="1" as="geometry">
            <mxPoint x="170" y="130" as="sourcePoint" />
            <mxPoint x="170" y="150" as="targetPoint" />
          </mxGeometry>
        </mxCell>
        <mxCell id="q3OCXO2SyUp_Sfbwh3Ol-16" value="void move(int start, int end, int sub,int n)" style="shape=process;whiteSpace=wrap;html=1;backgroundOutline=1;" vertex="1" parent="1">
          <mxGeometry x="340" y="80" width="160" height="50" as="geometry" />
        </mxCell>
        <mxCell id="q3OCXO2SyUp_Sfbwh3Ol-17" value="if(n&amp;gt;1)" style="rhombus;whiteSpace=wrap;html=1;" vertex="1" parent="1">
          <mxGeometry x="365" y="150" width="110" height="70" as="geometry" />
        </mxCell>
        <mxCell id="q3OCXO2SyUp_Sfbwh3Ol-18" value="Printf(start, end, n)" style="shape=process;whiteSpace=wrap;html=1;backgroundOutline=1;" vertex="1" parent="1">
          <mxGeometry x="340" y="320" width="160" height="50" as="geometry" />
        </mxCell>
        <mxCell id="q3OCXO2SyUp_Sfbwh3Ol-19" value="if(n&amp;gt;1)" style="rhombus;whiteSpace=wrap;html=1;" vertex="1" parent="1">
          <mxGeometry x="365" y="400" width="110" height="70" as="geometry" />
        </mxCell>
        <mxCell id="q3OCXO2SyUp_Sfbwh3Ol-20" value="move(start, sub, end,n-1)" style="shape=process;whiteSpace=wrap;html=1;backgroundOutline=1;" vertex="1" parent="1">
          <mxGeometry x="330" y="250" width="180" height="50" as="geometry" />
        </mxCell>
        <mxCell id="q3OCXO2SyUp_Sfbwh3Ol-22" value="" style="endArrow=classic;html=1;rounded=0;exitX=0.5;exitY=1;exitDx=0;exitDy=0;entryX=0.5;entryY=0;entryDx=0;entryDy=0;" edge="1" parent="1" source="q3OCXO2SyUp_Sfbwh3Ol-16" target="q3OCXO2SyUp_Sfbwh3Ol-17">
          <mxGeometry width="50" height="50" relative="1" as="geometry">
            <mxPoint x="460" y="390" as="sourcePoint" />
            <mxPoint x="510" y="340" as="targetPoint" />
          </mxGeometry>
        </mxCell>
        <mxCell id="q3OCXO2SyUp_Sfbwh3Ol-23" value="T" style="endArrow=classic;html=1;rounded=0;exitX=0.5;exitY=1;exitDx=0;exitDy=0;entryX=0.5;entryY=0;entryDx=0;entryDy=0;" edge="1" parent="1" source="q3OCXO2SyUp_Sfbwh3Ol-17" target="q3OCXO2SyUp_Sfbwh3Ol-20">
          <mxGeometry width="50" height="50" relative="1" as="geometry">
            <mxPoint x="460" y="490" as="sourcePoint" />
            <mxPoint x="510" y="440" as="targetPoint" />
          </mxGeometry>
        </mxCell>
        <mxCell id="q3OCXO2SyUp_Sfbwh3Ol-24" value="" style="endArrow=classic;html=1;rounded=0;exitX=0.5;exitY=1;exitDx=0;exitDy=0;entryX=0.5;entryY=0;entryDx=0;entryDy=0;" edge="1" parent="1" source="q3OCXO2SyUp_Sfbwh3Ol-20" target="q3OCXO2SyUp_Sfbwh3Ol-18">
          <mxGeometry width="50" height="50" relative="1" as="geometry">
            <mxPoint x="460" y="490" as="sourcePoint" />
            <mxPoint x="510" y="440" as="targetPoint" />
          </mxGeometry>
        </mxCell>
        <mxCell id="q3OCXO2SyUp_Sfbwh3Ol-26" value="" style="endArrow=classic;html=1;rounded=0;exitX=0.5;exitY=1;exitDx=0;exitDy=0;" edge="1" parent="1" source="q3OCXO2SyUp_Sfbwh3Ol-18" target="q3OCXO2SyUp_Sfbwh3Ol-19">
          <mxGeometry width="50" height="50" relative="1" as="geometry">
            <mxPoint x="460" y="490" as="sourcePoint" />
            <mxPoint x="510" y="440" as="targetPoint" />
          </mxGeometry>
        </mxCell>
        <mxCell id="q3OCXO2SyUp_Sfbwh3Ol-27" value="move(sub, end, start, n-1)" style="shape=process;whiteSpace=wrap;html=1;backgroundOutline=1;" vertex="1" parent="1">
          <mxGeometry x="330" y="500" width="180" height="50" as="geometry" />
        </mxCell>
        <mxCell id="q3OCXO2SyUp_Sfbwh3Ol-28" value="T" style="endArrow=classic;html=1;rounded=0;exitX=0.5;exitY=1;exitDx=0;exitDy=0;entryX=0.5;entryY=0;entryDx=0;entryDy=0;" edge="1" parent="1" source="q3OCXO2SyUp_Sfbwh3Ol-19" target="q3OCXO2SyUp_Sfbwh3Ol-27">
          <mxGeometry width="50" height="50" relative="1" as="geometry">
            <mxPoint x="430" y="380" as="sourcePoint" />
            <mxPoint x="430" y="410" as="targetPoint" />
          </mxGeometry>
        </mxCell>
        <mxCell id="q3OCXO2SyUp_Sfbwh3Ol-29" value="F" style="endArrow=classic;html=1;rounded=0;exitX=1;exitY=0.5;exitDx=0;exitDy=0;" edge="1" parent="1" source="q3OCXO2SyUp_Sfbwh3Ol-17">
          <mxGeometry width="50" height="50" relative="1" as="geometry">
            <mxPoint x="460" y="490" as="sourcePoint" />
            <mxPoint x="420" y="310" as="targetPoint" />
            <Array as="points">
              <mxPoint x="530" y="185" />
              <mxPoint x="530" y="310" />
            </Array>
          </mxGeometry>
        </mxCell>
        <mxCell id="q3OCXO2SyUp_Sfbwh3Ol-30" value="F" style="endArrow=classic;html=1;rounded=0;exitX=1;exitY=0.5;exitDx=0;exitDy=0;" edge="1" parent="1" source="q3OCXO2SyUp_Sfbwh3Ol-19">
          <mxGeometry width="50" height="50" relative="1" as="geometry">
            <mxPoint x="460" y="490" as="sourcePoint" />
            <mxPoint x="420" y="580" as="targetPoint" />
            <Array as="points">
              <mxPoint x="520" y="435" />
              <mxPoint x="520" y="580" />
            </Array>
          </mxGeometry>
        </mxCell>
        <mxCell id="q3OCXO2SyUp_Sfbwh3Ol-31" value="" style="endArrow=classic;html=1;rounded=0;exitX=0.5;exitY=1;exitDx=0;exitDy=0;" edge="1" parent="1" source="q3OCXO2SyUp_Sfbwh3Ol-27">
          <mxGeometry width="50" height="50" relative="1" as="geometry">
            <mxPoint x="460" y="490" as="sourcePoint" />
            <mxPoint x="420" y="600" as="targetPoint" />
          </mxGeometry>
        </mxCell>
        <mxCell id="q3OCXO2SyUp_Sfbwh3Ol-32" value="return" style="shape=document;whiteSpace=wrap;html=1;boundedLbl=1;" vertex="1" parent="1">
          <mxGeometry x="360" y="600" width="120" height="80" as="geometry" />
        </mxCell>
        <mxCell id="q3OCXO2SyUp_Sfbwh3Ol-33" value="void Print(int start, int end, int n)" style="shape=process;whiteSpace=wrap;html=1;backgroundOutline=1;" vertex="1" parent="1">
          <mxGeometry x="30" y="590" width="160" height="50" as="geometry" />
        </mxCell>
        <mxCell id="q3OCXO2SyUp_Sfbwh3Ol-34" value="int s=0;&lt;br&gt;int e=0;" style="rounded=0;whiteSpace=wrap;html=1;" vertex="1" parent="1">
          <mxGeometry x="60" y="660" width="100" height="40" as="geometry" />
        </mxCell>
        <mxCell id="q3OCXO2SyUp_Sfbwh3Ol-35" value="int i:0,1,2" style="shape=loopLimit;whiteSpace=wrap;html=1;" vertex="1" parent="1">
          <mxGeometry x="60" y="720" width="100" height="40" as="geometry" />
        </mxCell>
        <mxCell id="q3OCXO2SyUp_Sfbwh3Ol-36" value="" style="shape=loopLimit;whiteSpace=wrap;html=1;rotation=-180;" vertex="1" parent="1">
          <mxGeometry x="60" y="1150" width="100" height="40" as="geometry" />
        </mxCell>
        <mxCell id="q3OCXO2SyUp_Sfbwh3Ol-38" value="" style="endArrow=none;html=1;rounded=0;exitX=0.5;exitY=1;exitDx=0;exitDy=0;entryX=0.5;entryY=0;entryDx=0;entryDy=0;" edge="1" parent="1" source="q3OCXO2SyUp_Sfbwh3Ol-35" target="q3OCXO2SyUp_Sfbwh3Ol-41">
          <mxGeometry width="50" height="50" relative="1" as="geometry">
            <mxPoint x="190" y="670" as="sourcePoint" />
            <mxPoint x="110" y="770" as="targetPoint" />
          </mxGeometry>
        </mxCell>
        <mxCell id="q3OCXO2SyUp_Sfbwh3Ol-39" value="" style="endArrow=none;html=1;rounded=0;exitX=0.5;exitY=1;exitDx=0;exitDy=0;entryX=0.5;entryY=1;entryDx=0;entryDy=0;" edge="1" parent="1" source="q3OCXO2SyUp_Sfbwh3Ol-36" target="q3OCXO2SyUp_Sfbwh3Ol-44">
          <mxGeometry width="50" height="50" relative="1" as="geometry">
            <mxPoint x="120" y="1070" as="sourcePoint" />
            <mxPoint x="110" y="1100" as="targetPoint" />
          </mxGeometry>
        </mxCell>
        <mxCell id="q3OCXO2SyUp_Sfbwh3Ol-41" value="시작기둥 열 &lt;br&gt;배열이 비어있는가?" style="rhombus;whiteSpace=wrap;html=1;" vertex="1" parent="1">
          <mxGeometry x="40" y="775" width="140" height="80" as="geometry" />
        </mxCell>
        <mxCell id="q3OCXO2SyUp_Sfbwh3Ol-42" value="도착기둥 열 &lt;br&gt;배열이 비어있는가?" style="rhombus;whiteSpace=wrap;html=1;" vertex="1" parent="1">
          <mxGeometry x="40" y="960" width="140" height="80" as="geometry" />
        </mxCell>
        <mxCell id="q3OCXO2SyUp_Sfbwh3Ol-43" value="s++;" style="rounded=0;whiteSpace=wrap;html=1;" vertex="1" parent="1">
          <mxGeometry x="60" y="890" width="100" height="40" as="geometry" />
        </mxCell>
        <mxCell id="q3OCXO2SyUp_Sfbwh3Ol-44" value="e++;" style="rounded=0;whiteSpace=wrap;html=1;" vertex="1" parent="1">
          <mxGeometry x="60" y="1080" width="100" height="40" as="geometry" />
        </mxCell>
        <mxCell id="q3OCXO2SyUp_Sfbwh3Ol-45" value="" style="endArrow=classic;html=1;rounded=0;exitX=0.5;exitY=1;exitDx=0;exitDy=0;entryX=0.5;entryY=0;entryDx=0;entryDy=0;" edge="1" parent="1" source="q3OCXO2SyUp_Sfbwh3Ol-33" target="q3OCXO2SyUp_Sfbwh3Ol-34">
          <mxGeometry width="50" height="50" relative="1" as="geometry">
            <mxPoint x="-140" y="980" as="sourcePoint" />
            <mxPoint x="-90" y="930" as="targetPoint" />
          </mxGeometry>
        </mxCell>
        <mxCell id="q3OCXO2SyUp_Sfbwh3Ol-47" value="" style="endArrow=classic;html=1;rounded=0;exitX=0.5;exitY=1;exitDx=0;exitDy=0;entryX=0.5;entryY=0;entryDx=0;entryDy=0;" edge="1" parent="1" source="q3OCXO2SyUp_Sfbwh3Ol-34" target="q3OCXO2SyUp_Sfbwh3Ol-35">
          <mxGeometry width="50" height="50" relative="1" as="geometry">
            <mxPoint x="-140" y="980" as="sourcePoint" />
            <mxPoint x="-90" y="930" as="targetPoint" />
          </mxGeometry>
        </mxCell>
        <mxCell id="q3OCXO2SyUp_Sfbwh3Ol-48" value="T" style="endArrow=classic;html=1;rounded=0;exitX=0.5;exitY=1;exitDx=0;exitDy=0;entryX=0.5;entryY=0;entryDx=0;entryDy=0;" edge="1" parent="1" source="q3OCXO2SyUp_Sfbwh3Ol-41" target="q3OCXO2SyUp_Sfbwh3Ol-43">
          <mxGeometry width="50" height="50" relative="1" as="geometry">
            <mxPoint x="-140" y="980" as="sourcePoint" />
            <mxPoint x="-90" y="930" as="targetPoint" />
          </mxGeometry>
        </mxCell>
        <mxCell id="q3OCXO2SyUp_Sfbwh3Ol-49" value="" style="endArrow=classic;html=1;rounded=0;exitX=0.5;exitY=1;exitDx=0;exitDy=0;entryX=0.5;entryY=0;entryDx=0;entryDy=0;" edge="1" parent="1" source="q3OCXO2SyUp_Sfbwh3Ol-43" target="q3OCXO2SyUp_Sfbwh3Ol-42">
          <mxGeometry width="50" height="50" relative="1" as="geometry">
            <mxPoint x="-140" y="980" as="sourcePoint" />
            <mxPoint x="-90" y="930" as="targetPoint" />
          </mxGeometry>
        </mxCell>
        <mxCell id="q3OCXO2SyUp_Sfbwh3Ol-50" value="T" style="endArrow=classic;html=1;rounded=0;exitX=0.5;exitY=1;exitDx=0;exitDy=0;entryX=0.5;entryY=0;entryDx=0;entryDy=0;" edge="1" parent="1" source="q3OCXO2SyUp_Sfbwh3Ol-42" target="q3OCXO2SyUp_Sfbwh3Ol-44">
          <mxGeometry width="50" height="50" relative="1" as="geometry">
            <mxPoint x="-140" y="980" as="sourcePoint" />
            <mxPoint x="-90" y="930" as="targetPoint" />
          </mxGeometry>
        </mxCell>
        <mxCell id="q3OCXO2SyUp_Sfbwh3Ol-51" value="F" style="endArrow=classic;html=1;rounded=0;exitX=1;exitY=0.5;exitDx=0;exitDy=0;" edge="1" parent="1" source="q3OCXO2SyUp_Sfbwh3Ol-41">
          <mxGeometry width="50" height="50" relative="1" as="geometry">
            <mxPoint x="-140" y="980" as="sourcePoint" />
            <mxPoint x="110" y="950" as="targetPoint" />
            <Array as="points">
              <mxPoint x="200" y="820" />
              <mxPoint x="200" y="950" />
            </Array>
          </mxGeometry>
        </mxCell>
        <mxCell id="q3OCXO2SyUp_Sfbwh3Ol-52" value="F" style="endArrow=classic;html=1;rounded=0;exitX=1;exitY=0.5;exitDx=0;exitDy=0;" edge="1" parent="1" source="q3OCXO2SyUp_Sfbwh3Ol-42">
          <mxGeometry width="50" height="50" relative="1" as="geometry">
            <mxPoint x="-140" y="980" as="sourcePoint" />
            <mxPoint x="110" y="1140" as="targetPoint" />
            <Array as="points">
              <mxPoint x="210" y="1000" />
              <mxPoint x="210" y="1140" />
            </Array>
          </mxGeometry>
        </mxCell>
        <mxCell id="q3OCXO2SyUp_Sfbwh3Ol-53" value="&lt;div&gt;top[e-1][end - 1] = top[s][start - 1];&lt;/div&gt;&lt;div&gt;	top[s][start - 1] = &#39;\0&#39;;&lt;/div&gt;" style="rounded=0;whiteSpace=wrap;html=1;" vertex="1" parent="1">
          <mxGeometry x="15" y="1220" width="190" height="50" as="geometry" />
        </mxCell>
        <mxCell id="q3OCXO2SyUp_Sfbwh3Ol-54" value="int i:0,1,2" style="shape=loopLimit;whiteSpace=wrap;html=1;" vertex="1" parent="1">
          <mxGeometry x="60" y="1290" width="100" height="40" as="geometry" />
        </mxCell>
        <mxCell id="q3OCXO2SyUp_Sfbwh3Ol-55" value="" style="shape=loopLimit;whiteSpace=wrap;html=1;rotation=-180;" vertex="1" parent="1">
          <mxGeometry x="60" y="1700" width="100" height="40" as="geometry" />
        </mxCell>
        <mxCell id="q3OCXO2SyUp_Sfbwh3Ol-56" value="int j:0,1,2" style="shape=loopLimit;whiteSpace=wrap;html=1;" vertex="1" parent="1">
          <mxGeometry x="60" y="1340" width="100" height="40" as="geometry" />
        </mxCell>
        <mxCell id="q3OCXO2SyUp_Sfbwh3Ol-57" value="" style="shape=loopLimit;whiteSpace=wrap;html=1;rotation=-180;" vertex="1" parent="1">
          <mxGeometry x="60" y="1570" width="100" height="40" as="geometry" />
        </mxCell>
        <mxCell id="q3OCXO2SyUp_Sfbwh3Ol-58" value="해당 배열요소에 &lt;br&gt;숫자가 있는가?" style="rhombus;whiteSpace=wrap;html=1;" vertex="1" parent="1">
          <mxGeometry x="40" y="1400" width="140" height="60" as="geometry" />
        </mxCell>
        <mxCell id="q3OCXO2SyUp_Sfbwh3Ol-59" value="cout&amp;lt;&amp;lt;endl" style="shape=document;whiteSpace=wrap;html=1;boundedLbl=1;" vertex="1" parent="1">
          <mxGeometry x="55" y="1630" width="110" height="50" as="geometry" />
        </mxCell>
        <mxCell id="q3OCXO2SyUp_Sfbwh3Ol-60" value="밑줄 및 A, B, C&lt;br&gt;출력" style="shape=document;whiteSpace=wrap;html=1;boundedLbl=1;" vertex="1" parent="1">
          <mxGeometry x="50" y="1760" width="120" height="80" as="geometry" />
        </mxCell>
        <mxCell id="q3OCXO2SyUp_Sfbwh3Ol-61" value="" style="endArrow=classic;html=1;rounded=0;exitX=0.5;exitY=0;exitDx=0;exitDy=0;entryX=0.5;entryY=0;entryDx=0;entryDy=0;" edge="1" parent="1" source="q3OCXO2SyUp_Sfbwh3Ol-36" target="q3OCXO2SyUp_Sfbwh3Ol-53">
          <mxGeometry width="50" height="50" relative="1" as="geometry">
            <mxPoint x="-140" y="1450" as="sourcePoint" />
            <mxPoint x="-90" y="1400" as="targetPoint" />
          </mxGeometry>
        </mxCell>
        <mxCell id="q3OCXO2SyUp_Sfbwh3Ol-62" value="" style="endArrow=classic;html=1;rounded=0;exitX=0.5;exitY=1;exitDx=0;exitDy=0;entryX=0.5;entryY=0;entryDx=0;entryDy=0;" edge="1" parent="1" source="q3OCXO2SyUp_Sfbwh3Ol-53" target="q3OCXO2SyUp_Sfbwh3Ol-54">
          <mxGeometry width="50" height="50" relative="1" as="geometry">
            <mxPoint x="-140" y="1450" as="sourcePoint" />
            <mxPoint x="-90" y="1400" as="targetPoint" />
          </mxGeometry>
        </mxCell>
        <mxCell id="q3OCXO2SyUp_Sfbwh3Ol-63" value="" style="endArrow=none;html=1;rounded=0;entryX=0.5;entryY=1;entryDx=0;entryDy=0;exitX=0.5;exitY=0;exitDx=0;exitDy=0;" edge="1" parent="1" source="q3OCXO2SyUp_Sfbwh3Ol-56" target="q3OCXO2SyUp_Sfbwh3Ol-54">
          <mxGeometry width="50" height="50" relative="1" as="geometry">
            <mxPoint x="-140" y="1450" as="sourcePoint" />
            <mxPoint x="-90" y="1400" as="targetPoint" />
          </mxGeometry>
        </mxCell>
        <mxCell id="q3OCXO2SyUp_Sfbwh3Ol-64" value="" style="endArrow=none;html=1;rounded=0;entryX=0.5;entryY=1;entryDx=0;entryDy=0;exitX=0.5;exitY=0;exitDx=0;exitDy=0;" edge="1" parent="1" source="q3OCXO2SyUp_Sfbwh3Ol-58" target="q3OCXO2SyUp_Sfbwh3Ol-56">
          <mxGeometry width="50" height="50" relative="1" as="geometry">
            <mxPoint x="-140" y="1450" as="sourcePoint" />
            <mxPoint x="-90" y="1400" as="targetPoint" />
          </mxGeometry>
        </mxCell>
        <mxCell id="q3OCXO2SyUp_Sfbwh3Ol-65" value="글자 출력" style="rounded=0;whiteSpace=wrap;html=1;" vertex="1" parent="1">
          <mxGeometry x="60" y="1490" width="100" height="40" as="geometry" />
        </mxCell>
        <mxCell id="q3OCXO2SyUp_Sfbwh3Ol-66" value="빈칸 출력" style="rounded=0;whiteSpace=wrap;html=1;" vertex="1" parent="1">
          <mxGeometry x="230" y="1410" width="100" height="40" as="geometry" />
        </mxCell>
        <mxCell id="q3OCXO2SyUp_Sfbwh3Ol-67" value="T" style="endArrow=classic;html=1;rounded=0;exitX=0.5;exitY=1;exitDx=0;exitDy=0;entryX=0.5;entryY=0;entryDx=0;entryDy=0;" edge="1" parent="1" source="q3OCXO2SyUp_Sfbwh3Ol-58" target="q3OCXO2SyUp_Sfbwh3Ol-65">
          <mxGeometry width="50" height="50" relative="1" as="geometry">
            <mxPoint x="-140" y="1450" as="sourcePoint" />
            <mxPoint x="-90" y="1400" as="targetPoint" />
          </mxGeometry>
        </mxCell>
        <mxCell id="q3OCXO2SyUp_Sfbwh3Ol-68" value="F" style="endArrow=classic;html=1;rounded=0;exitX=1;exitY=0.5;exitDx=0;exitDy=0;entryX=0;entryY=0.5;entryDx=0;entryDy=0;" edge="1" parent="1" source="q3OCXO2SyUp_Sfbwh3Ol-58" target="q3OCXO2SyUp_Sfbwh3Ol-66">
          <mxGeometry width="50" height="50" relative="1" as="geometry">
            <mxPoint x="-140" y="1450" as="sourcePoint" />
            <mxPoint x="-90" y="1400" as="targetPoint" />
          </mxGeometry>
        </mxCell>
        <mxCell id="q3OCXO2SyUp_Sfbwh3Ol-69" value="" style="endArrow=none;html=1;rounded=0;entryX=0.5;entryY=1;entryDx=0;entryDy=0;exitX=0.5;exitY=1;exitDx=0;exitDy=0;" edge="1" parent="1" source="q3OCXO2SyUp_Sfbwh3Ol-57" target="q3OCXO2SyUp_Sfbwh3Ol-65">
          <mxGeometry width="50" height="50" relative="1" as="geometry">
            <mxPoint x="-140" y="1450" as="sourcePoint" />
            <mxPoint x="-90" y="1400" as="targetPoint" />
          </mxGeometry>
        </mxCell>
        <mxCell id="q3OCXO2SyUp_Sfbwh3Ol-70" value="" style="endArrow=none;html=1;rounded=0;entryX=0.5;entryY=1;entryDx=0;entryDy=0;" edge="1" parent="1" target="q3OCXO2SyUp_Sfbwh3Ol-66">
          <mxGeometry width="50" height="50" relative="1" as="geometry">
            <mxPoint x="110" y="1550" as="sourcePoint" />
            <mxPoint x="-90" y="1400" as="targetPoint" />
            <Array as="points">
              <mxPoint x="280" y="1550" />
            </Array>
          </mxGeometry>
        </mxCell>
        <mxCell id="q3OCXO2SyUp_Sfbwh3Ol-71" value="" style="endArrow=classic;html=1;rounded=0;exitX=0.5;exitY=0;exitDx=0;exitDy=0;entryX=0.5;entryY=0;entryDx=0;entryDy=0;" edge="1" parent="1" source="q3OCXO2SyUp_Sfbwh3Ol-57" target="q3OCXO2SyUp_Sfbwh3Ol-59">
          <mxGeometry width="50" height="50" relative="1" as="geometry">
            <mxPoint x="-140" y="1450" as="sourcePoint" />
            <mxPoint x="-90" y="1400" as="targetPoint" />
          </mxGeometry>
        </mxCell>
        <mxCell id="q3OCXO2SyUp_Sfbwh3Ol-72" value="" style="endArrow=classic;html=1;rounded=0;exitX=0.491;exitY=0.835;exitDx=0;exitDy=0;exitPerimeter=0;entryX=0.5;entryY=1;entryDx=0;entryDy=0;" edge="1" parent="1" source="q3OCXO2SyUp_Sfbwh3Ol-59" target="q3OCXO2SyUp_Sfbwh3Ol-55">
          <mxGeometry width="50" height="50" relative="1" as="geometry">
            <mxPoint x="-140" y="1540" as="sourcePoint" />
            <mxPoint x="-90" y="1490" as="targetPoint" />
          </mxGeometry>
        </mxCell>
        <mxCell id="q3OCXO2SyUp_Sfbwh3Ol-74" value="" style="endArrow=classic;html=1;rounded=0;exitX=0.5;exitY=0;exitDx=0;exitDy=0;entryX=0.5;entryY=0;entryDx=0;entryDy=0;" edge="1" parent="1" source="q3OCXO2SyUp_Sfbwh3Ol-55" target="q3OCXO2SyUp_Sfbwh3Ol-60">
          <mxGeometry width="50" height="50" relative="1" as="geometry">
            <mxPoint x="-140" y="1540" as="sourcePoint" />
            <mxPoint x="-90" y="1490" as="targetPoint" />
          </mxGeometry>
        </mxCell>
      </root>
    </mxGraphModel>
  </diagram>
</mxfile>
